<svg width="1080" height="512" viewBox="0 0 1080 512" fill="none" xmlns="http://www.w3.org/2000/svg">
<path d="M188.169 372C183.169 372 178.919 371.667 175.419 371V346C178.086 346.667 181.086 347 184.419 347C189.919 347 194.002 345.667 196.669 343C199.336 340.167 200.669 335.917 200.669 330.25V196H228.169V329.5C228.169 343.833 224.836 354.5 218.169 361.5C211.669 368.5 201.669 372 188.169 372Z" fill="#1D2023"/>
<path d="M272.062 196H300.372L322.032 329H301.132L297.332 302.59V302.97H273.582L269.782 329H250.402L272.062 196ZM294.862 284.92L285.552 219.18H285.172L276.052 284.92H294.862ZM341.672 196H362.572V310H396.962V329H341.672V196ZM433.377 196H461.687L483.347 329H462.447L458.647 302.59V302.97H434.897L431.097 329H411.717L433.377 196ZM456.177 284.92L446.867 219.18H446.487L437.367 284.92H456.177ZM529.6 330.9C519.466 330.9 511.803 328.05 506.61 322.35C501.416 316.523 498.82 308.227 498.82 297.46V289.86H518.58V298.98C518.58 307.593 522.19 311.9 529.41 311.9C532.956 311.9 535.616 310.887 537.39 308.86C539.29 306.707 540.24 303.287 540.24 298.6C540.24 293.027 538.973 288.15 536.44 283.97C533.906 279.663 529.22 274.533 522.38 268.58C513.766 260.98 507.75 254.14 504.33 248.06C500.91 241.853 499.2 234.887 499.2 227.16C499.2 216.647 501.86 208.54 507.18 202.84C512.5 197.013 520.226 194.1 530.36 194.1C540.366 194.1 547.903 197.013 552.97 202.84C558.163 208.54 560.76 216.773 560.76 227.54V233.05H541V226.21C541 221.65 540.113 218.357 538.34 216.33C536.566 214.177 533.97 213.1 530.55 213.1C523.583 213.1 520.1 217.343 520.1 225.83C520.1 230.643 521.366 235.14 523.9 239.32C526.56 243.5 531.31 248.567 538.15 254.52C546.89 262.12 552.906 269.023 556.2 275.23C559.493 281.437 561.14 288.72 561.14 297.08C561.14 307.973 558.416 316.333 552.97 322.16C547.65 327.987 539.86 330.9 529.6 330.9ZM613.023 330.9C602.89 330.9 595.163 328.05 589.843 322.35C584.523 316.523 581.863 308.227 581.863 297.46V196H602.763V298.98C602.763 303.54 603.65 306.833 605.423 308.86C607.323 310.887 609.983 311.9 613.403 311.9C616.823 311.9 619.42 310.887 621.193 308.86C623.093 306.833 624.043 303.54 624.043 298.98V196H644.183V297.46C644.183 308.227 641.523 316.523 636.203 322.35C630.883 328.05 623.156 330.9 613.023 330.9ZM684.908 215H663.058V196H727.658V215H705.808V329H684.908V215ZM747.277 196H778.247C789.014 196 796.867 198.533 801.807 203.6C806.747 208.54 809.217 216.203 809.217 226.59V234.76C809.217 248.567 804.657 257.307 795.537 260.98V261.36C800.604 262.88 804.151 265.983 806.177 270.67C808.331 275.357 809.407 281.627 809.407 289.48V312.85C809.407 316.65 809.534 319.753 809.787 322.16C810.041 324.44 810.674 326.72 811.687 329H790.407C789.647 326.847 789.141 324.82 788.887 322.92C788.634 321.02 788.507 317.6 788.507 312.66V288.34C788.507 282.26 787.494 278.017 785.467 275.61C783.567 273.203 780.211 272 775.397 272H768.177V329H747.277V196ZM775.777 253C779.957 253 783.061 251.923 785.087 249.77C787.241 247.617 788.317 244.007 788.317 238.94V228.68C788.317 223.867 787.431 220.383 785.657 218.23C784.011 216.077 781.351 215 777.677 215H768.177V253H775.777ZM849.558 196H877.868L899.528 329H878.628L874.828 302.59V302.97H851.078L847.278 329H827.898L849.558 196ZM872.358 284.92L863.048 219.18H862.668L853.548 284.92H872.358Z" fill="#2A2D31"/>
<path d="M249.265 339H257.115L260.615 364.05H260.715L264.215 339H272.065V374H266.865V347.5H266.765L262.765 374H258.165L254.165 347.5H254.065V374H249.265V339ZM285.419 339H292.869L298.569 374H293.069L292.069 367.05V367.15H285.819L284.819 374H279.719L285.419 339ZM291.419 362.4L288.969 345.1H288.869L286.469 362.4H291.419ZM306.238 339H311.738V369H320.788V374H306.238V339ZM328.425 339H333.925V369H342.975V374H328.425V339ZM363.62 339H371.72C374.454 339 376.504 339.733 377.87 341.2C379.237 342.667 379.92 344.817 379.92 347.65V351.1C379.92 353.933 379.237 356.083 377.87 357.55C376.504 359.017 374.454 359.75 371.72 359.75H369.12V374H363.62V339ZM371.72 354.75C372.62 354.75 373.287 354.5 373.72 354C374.187 353.5 374.42 352.65 374.42 351.45V347.3C374.42 346.1 374.187 345.25 373.72 344.75C373.287 344.25 372.62 344 371.72 344H369.12V354.75H371.72ZM387.907 339H402.907V344H393.407V353.25H400.957V358.25H393.407V369H402.907V374H387.907V339ZM411.071 339H416.571V369H425.621V374H411.071V339ZM437.704 339H445.154L450.854 374H445.354L444.354 367.05V367.15H438.104L437.104 374H432.004L437.704 339ZM443.704 362.4L441.254 345.1H441.154L438.754 362.4H443.704ZM461.278 359.1L454.628 339H460.478L464.228 351.85H464.328L468.078 339H473.428L466.778 359.1V374H461.278V359.1ZM482.861 339H490.311L496.011 374H490.511L489.511 367.05V367.15H483.261L482.261 374H477.161L482.861 339ZM488.861 362.4L486.411 345.1H486.311L483.911 362.4H488.861ZM503.679 339H510.579L515.929 359.95H516.029V339H520.929V374H515.279L508.679 348.45H508.579V374H503.679V339ZM534.267 339H541.717L547.417 374H541.917L540.917 367.05V367.15H534.667L533.667 374H528.567L534.267 339ZM540.267 362.4L537.817 345.1H537.717L535.317 362.4H540.267ZM555.085 339H561.985L567.335 359.95H567.435V339H572.335V374H566.685L560.085 348.45H559.985V374H555.085V339ZM594.431 339H602.531C605.264 339 607.314 339.733 608.681 341.2C610.048 342.667 610.731 344.817 610.731 347.65V351.1C610.731 353.933 610.048 356.083 608.681 357.55C607.314 359.017 605.264 359.75 602.531 359.75H599.931V374H594.431V339ZM602.531 354.75C603.431 354.75 604.098 354.5 604.531 354C604.998 353.5 605.231 352.65 605.231 351.45V347.3C605.231 346.1 604.998 345.25 604.531 344.75C604.098 344.25 603.431 344 602.531 344H599.931V354.75H602.531ZM626.718 374.5C624.051 374.5 622.018 373.75 620.618 372.25C619.218 370.717 618.518 368.533 618.518 365.7V339H624.018V366.1C624.018 367.3 624.251 368.167 624.718 368.7C625.218 369.233 625.918 369.5 626.818 369.5C627.718 369.5 628.401 369.233 628.868 368.7C629.368 368.167 629.618 367.3 629.618 366.1V339H634.918V365.7C634.918 368.533 634.218 370.717 632.818 372.25C631.418 373.75 629.385 374.5 626.718 374.5ZM643.835 339H652.135C654.968 339 657.035 339.667 658.335 341C659.635 342.3 660.285 344.317 660.285 347.05V348.45C660.285 350.25 659.985 351.717 659.385 352.85C658.818 353.983 657.935 354.8 656.735 355.3V355.4C659.468 356.333 660.835 358.767 660.835 362.7V365.7C660.835 368.4 660.118 370.467 658.685 371.9C657.285 373.3 655.218 374 652.485 374H643.835V339ZM651.485 353.25C652.585 353.25 653.402 352.967 653.935 352.4C654.502 351.833 654.785 350.883 654.785 349.55V347.6C654.785 346.333 654.552 345.417 654.085 344.85C653.652 344.283 652.952 344 651.985 344H649.335V353.25H651.485ZM652.485 369C653.452 369 654.168 368.75 654.635 368.25C655.102 367.717 655.335 366.817 655.335 365.55V362.5C655.335 360.9 655.052 359.8 654.485 359.2C653.952 358.567 653.052 358.25 651.785 358.25H649.335V369H652.485ZM669.05 339H674.55V369H683.6V374H669.05V339ZM691.238 339H696.738V374H691.238V339ZM705.857 339H711.357V353.75L718.357 339H723.857L717.307 351.85L723.957 374H718.207L713.557 358.4L711.357 362.85V374H705.857V339ZM743.118 339H748.668L752.268 366.15H752.368L755.968 339H761.018L755.718 374H748.418L743.118 339ZM768.659 339H774.159V374H768.659V339ZM783.279 339H791.429C794.262 339 796.329 339.667 797.629 341C798.929 342.3 799.579 344.317 799.579 347.05V349.2C799.579 352.833 798.379 355.133 795.979 356.1V356.2C797.312 356.6 798.245 357.417 798.779 358.65C799.345 359.883 799.629 361.533 799.629 363.6V369.75C799.629 370.75 799.662 371.567 799.729 372.2C799.795 372.8 799.962 373.4 800.229 374H794.629C794.429 373.433 794.295 372.9 794.229 372.4C794.162 371.9 794.129 371 794.129 369.7V363.3C794.129 361.7 793.862 360.583 793.329 359.95C792.829 359.317 791.945 359 790.679 359H788.779V374H783.279V339ZM790.779 354C791.879 354 792.695 353.717 793.229 353.15C793.795 352.583 794.079 351.633 794.079 350.3V347.6C794.079 346.333 793.845 345.417 793.379 344.85C792.945 344.283 792.245 344 791.279 344H788.779V354H790.779ZM812.647 344H806.897V339H823.897V344H818.147V374H812.647V344ZM839.56 374.5C836.893 374.5 834.86 373.75 833.46 372.25C832.06 370.717 831.36 368.533 831.36 365.7V339H836.86V366.1C836.86 367.3 837.093 368.167 837.56 368.7C838.06 369.233 838.76 369.5 839.66 369.5C840.56 369.5 841.243 369.233 841.71 368.7C842.21 368.167 842.46 367.3 842.46 366.1V339H847.76V365.7C847.76 368.533 847.06 370.717 845.66 372.25C844.26 373.75 842.226 374.5 839.56 374.5ZM860.829 339H868.279L873.979 374H868.479L867.479 367.05V367.15H861.229L860.229 374H855.129L860.829 339ZM866.829 362.4L864.379 345.1H864.279L861.879 362.4H866.829ZM881.648 339H887.148V369H896.198V374H881.648V339Z" fill="#2A2D31"/>
<rect x="201" y="138" width="28" height="28" fill="#1D2023"/>
<rect x="143" y="80" width="28" height="28" fill="#1D2023"/>
<rect x="85" y="138" width="28" height="28" fill="#1D2023"/>
<rect x="143" y="138" width="28" height="28" fill="#1D2023"/>
<rect x="143" y="196" width="28" height="28" fill="#1D2023"/>
<path d="M85.4346 80.5256L112.224 80.4244L85.4909 107.316L85.4346 80.5256Z" fill="#1D2023" fill-opacity="0.5"/>
</svg>
